<?xml version="1.0" encoding="utf-8" ?>
<svg baseProfile="full" height="150.0" version="1.1" viewBox="0,0,935.7142857142858,150.0" width="935.7142857142858" xmlns="http://www.w3.org/2000/svg" xmlns:ev="http://www.w3.org/2001/xml-events" xmlns:xlink="http://www.w3.org/1999/xlink"><defs /><line stroke="rgb(100%,100%,100%)" x1="0" x2="935.7142857142858" y1="100.0" y2="125.0" /><line stroke="rgb(100%,100%,100%)" x1="0" x2="935.7142857142858" y1="50.0" y2="25.0" /><line stroke="rgb(100%,100%,100%)" x1="0" x2="935.7142857142858" y1="125.0" y2="150.0" /><line stroke="rgb(100%,100%,100%)" x1="0" x2="935.7142857142858" y1="25.0" y2="0" /><line stroke="rgb(100%,100%,100%)" x1="0" x2="0" y1="125.0" y2="25.0" /><line stroke="rgb(100%,100%,100%)" x1="76.78571428571428" x2="76.78571428571428" y1="127.67857142857143" y2="22.321428571428573" /><line stroke="rgb(100%,100%,100%)" x1="50" x2="50" y1="126.78571428571429" y2="23.214285714285715" /><line stroke="rgb(100%,100%,100%)" x1="103.57142857142857" x2="103.57142857142857" y1="128.57142857142858" y2="21.42857142857143" /><line stroke="rgb(100%,100%,100%)" x1="191.07142857142858" x2="191.07142857142858" y1="131.25" y2="18.750000000000004" /><line stroke="rgb(100%,100%,100%)" x1="160.71428571428572" x2="160.71428571428572" y1="130.35714285714286" y2="19.642857142857146" /><line stroke="rgb(100%,100%,100%)" x1="221.42857142857144" x2="221.42857142857144" y1="132.14285714285714" y2="17.85714285714286" /><line stroke="rgb(100%,100%,100%)" x1="319.64285714285717" x2="319.64285714285717" y1="134.82142857142856" y2="15.178571428571434" /><line stroke="rgb(100%,100%,100%)" x1="285.7142857142857" x2="285.7142857142857" y1="133.92857142857142" y2="16.071428571428577" /><line stroke="rgb(100%,100%,100%)" x1="353.57142857142856" x2="353.57142857142856" y1="135.7142857142857" y2="14.28571428571429" /><line stroke="rgb(100%,100%,100%)" x1="462.5" x2="462.5" y1="138.3928571428571" y2="11.607142857142861" /><line stroke="rgb(100%,100%,100%)" x1="425.0" x2="425.0" y1="137.49999999999997" y2="12.500000000000004" /><line stroke="rgb(100%,100%,100%)" x1="500.0" x2="500.0" y1="139.28571428571425" y2="10.714285714285717" /><line stroke="rgb(100%,100%,100%)" x1="619.6428571428571" x2="619.6428571428571" y1="141.96428571428567" y2="8.035714285714288" /><line stroke="rgb(100%,100%,100%)" x1="578.5714285714286" x2="578.5714285714286" y1="141.07142857142853" y2="8.92857142857143" /><line stroke="rgb(100%,100%,100%)" x1="660.7142857142857" x2="660.7142857142857" y1="142.8571428571428" y2="7.142857142857145" /><line stroke="rgb(100%,100%,100%)" x1="791.0714285714284" x2="791.0714285714284" y1="145.53571428571422" y2="4.464285714285716" /><line stroke="rgb(100%,100%,100%)" x1="746.4285714285713" x2="746.4285714285713" y1="144.64285714285708" y2="5.357142857142859" /><line stroke="rgb(100%,100%,100%)" x1="835.7142857142856" x2="835.7142857142856" y1="146.42857142857136" y2="3.571428571428574" /><line stroke="rgb(100%,100%,100%)" x1="976.7857142857141" x2="976.7857142857141" y1="149.10714285714278" y2="0.8928571428571451" /><line stroke="rgb(100%,100%,100%)" x1="935.7142857142858" x2="935.7142857142858" y1="0" y2="150.0" /><line stroke="rgb(100%,100%,100%)" x1="50" x2="103.57142857142857" y1="101.78571428571429" y2="46.42857142857143" /><line stroke="rgb(100%,100%,100%)" x1="50" x2="103.57142857142857" y1="48.214285714285715" y2="103.57142857142858" /><line stroke="rgb(100%,100%,100%)" x1="160.71428571428572" x2="221.42857142857144" y1="105.35714285714288" y2="42.85714285714286" /><line stroke="rgb(100%,100%,100%)" x1="160.71428571428572" x2="221.42857142857144" y1="44.642857142857146" y2="107.14285714285717" /><line stroke="rgb(100%,100%,100%)" x1="285.7142857142857" x2="353.57142857142856" y1="108.92857142857146" y2="39.28571428571429" /><line stroke="rgb(100%,100%,100%)" x1="285.7142857142857" x2="353.57142857142856" y1="41.07142857142858" y2="110.71428571428575" /><line stroke="rgb(100%,100%,100%)" x1="425.0" x2="500.0" y1="112.50000000000004" y2="35.71428571428572" /><line stroke="rgb(100%,100%,100%)" x1="425.0" x2="500.0" y1="37.50000000000001" y2="114.28571428571433" /><line stroke="rgb(100%,100%,100%)" x1="578.5714285714286" x2="660.7142857142857" y1="116.07142857142863" y2="32.14285714285715" /><line stroke="rgb(100%,100%,100%)" x1="578.5714285714286" x2="660.7142857142857" y1="33.92857142857144" y2="117.85714285714292" /><line stroke="rgb(100%,100%,100%)" x1="746.4285714285713" x2="835.7142857142856" y1="119.64285714285721" y2="28.571428571428584" /><line stroke="rgb(100%,100%,100%)" x1="746.4285714285713" x2="835.7142857142856" y1="30.35714285714287" y2="121.4285714285715" /></svg>